<svg width="122" height="41" viewBox="0 0 122 41" fill="none" xmlns="http://www.w3.org/2000/svg">
<path d="M25.7351 0C25.7218 0.0815517 25.6976 0.160899 25.6998 0.242451C25.7064 2.23496 25.713 4.22746 25.7218 6.21997C25.7218 6.55499 25.7218 6.89002 25.7218 7.203C27.3639 5.56094 29.0126 3.91448 30.6811 2.24598C30.842 2.38704 30.961 2.48182 31.069 2.58761C33.1342 4.63963 35.1973 6.69165 37.2603 8.74587C37.5468 9.0302 37.8157 9.33216 38.1089 9.61208C38.261 9.75755 38.2698 9.84571 38.1089 10.0044C37.0641 11.0359 36.0216 12.0719 34.9945 13.1232C34.4457 13.6875 33.9277 14.2826 33.4318 14.827H40.54V25.713H33.3128C33.3899 25.81 33.4208 25.8585 33.4626 25.9004C35.0187 27.4609 36.5748 29.0214 38.1375 30.5731C38.2896 30.7229 38.2433 30.8001 38.1177 30.9257C36.4095 32.6317 34.7058 34.3421 32.9998 36.0503C32.3055 36.7445 31.6002 37.43 30.9147 38.1331C30.7736 38.2786 30.7031 38.2477 30.5863 38.1331C29.7421 37.2912 28.8891 36.4536 28.0472 35.6094C27.333 34.8953 26.6299 34.1702 25.9202 33.4516C25.8717 33.4031 25.8122 33.3657 25.7086 33.2841C25.6998 33.434 25.691 33.5288 25.691 33.6235C25.6932 35.8365 25.6976 38.0494 25.702 40.2601C25.702 40.3593 25.7241 40.4563 25.7351 40.5554H14.8248C14.8336 40.4474 14.849 40.3372 14.849 40.2292C14.8556 38.0163 14.86 35.8056 14.8622 33.5927C14.8622 33.5133 14.8336 33.4318 14.8049 33.2885C13.1276 34.9879 11.501 36.6388 9.85894 38.305C9.74653 38.2081 9.66718 38.1464 9.59886 38.0758C7.2052 35.68 4.81155 33.2819 2.41349 30.8905C2.28565 30.7626 2.30549 30.7009 2.42231 30.5863C3.91448 29.1051 5.40225 27.6196 6.89222 26.1384C7.01345 26.0194 7.16112 25.9268 7.29557 25.821C7.27353 25.788 7.24928 25.7571 7.22724 25.7241C6.94732 25.7241 6.6674 25.7241 6.38748 25.7241C4.50518 25.7241 2.62288 25.724 0.740578 25.7218C0.493718 25.7218 0.246859 25.6932 0 25.68C0 22.0608 0 18.4439 0 14.8248C0.0793476 14.8358 0.158695 14.8556 0.240247 14.8578C2.45316 14.8622 4.66388 14.8645 6.87679 14.8645C6.99141 14.8645 7.10602 14.8468 7.29998 14.8314C7.11704 14.6661 6.987 14.5581 6.86798 14.4369C5.378 12.9403 3.89244 11.4415 2.40026 9.9471C2.30328 9.84792 2.28345 9.78841 2.39145 9.68041C2.83447 9.24179 3.26648 8.78995 3.7073 8.34913C5.67115 6.39409 7.63941 4.44347 9.59665 2.47961C9.76857 2.30769 9.84571 2.29667 10.0198 2.46859C11.4547 3.90346 12.8984 5.32731 14.3377 6.75777C14.4986 6.91647 14.6396 7.095 14.7917 7.26471C14.816 7.2603 14.8402 7.25369 14.8645 7.24928C14.8645 7.10822 14.8689 6.96936 14.8645 6.8283C14.8578 6.62773 14.8358 6.42495 14.8358 6.22438C14.8358 4.406 14.8358 2.58982 14.8358 0.771435C14.8358 0.515759 14.8292 0.25788 14.8248 0.0022041C18.4615 0 22.0983 0 25.7351 0ZM29.7333 20.2535C29.7333 20.2535 29.7289 20.2535 29.7245 20.2535C29.7245 18.9861 29.7267 17.7188 29.7201 16.4536C29.7201 16.3566 29.6716 16.2332 29.6033 16.1649C27.873 14.428 26.1384 12.6956 24.3994 10.9676C24.3289 10.8993 24.212 10.8442 24.1129 10.842C23.6081 10.8287 23.1034 10.8309 22.5986 10.8309C20.6149 10.8354 18.6313 10.8464 16.6498 10.8376C16.3985 10.8376 16.22 10.8949 16.0436 11.0712C14.3729 12.7507 12.6912 14.4192 11.0249 16.101C10.9059 16.2222 10.8265 16.4382 10.8243 16.6101C10.8199 19.0522 10.8332 21.4944 10.8354 23.9365C10.8354 24.1658 10.8993 24.3377 11.0624 24.4964C11.7104 25.1356 12.3496 25.7814 12.991 26.425C14.0159 27.4521 15.0386 28.4814 16.0723 29.4997C16.1803 29.6055 16.35 29.7047 16.4933 29.7047C18.9993 29.7179 21.5076 29.7201 24.0137 29.7091C24.1658 29.7091 24.3575 29.6253 24.4677 29.5173C26.1516 27.851 27.8224 26.1715 29.5019 24.5008C29.6716 24.3311 29.7399 24.1547 29.7399 23.9167C29.7311 22.6956 29.7355 21.4745 29.7355 20.2535H29.7333ZM35.1554 23.6434C35.1554 23.6434 35.1554 23.639 35.1554 23.6368C36.1825 23.6368 37.2096 23.628 38.2389 23.6434C38.5078 23.6478 38.5806 23.5662 38.5784 23.3039C38.5695 21.2762 38.5695 19.2484 38.5784 17.2206C38.5784 16.9716 38.4968 16.9076 38.2654 16.9076C36.1913 16.9143 34.1195 16.9143 32.0454 16.9076C31.8581 16.9076 31.7853 16.9583 31.7853 17.1545C31.7897 19.2374 31.7897 21.3181 31.7853 23.4009C31.7853 23.5993 31.8625 23.6456 32.0476 23.6434C33.0835 23.6346 34.1217 23.639 35.1576 23.639L35.1554 23.6434ZM5.34715 23.6434C5.34715 23.6434 5.34715 23.639 5.34715 23.6368C6.38528 23.6368 7.42341 23.6257 8.45933 23.6434C8.71281 23.6478 8.77452 23.5662 8.77232 23.337C8.76571 21.2894 8.7635 19.2418 8.76791 17.1942C8.76791 16.9804 8.70619 16.9076 8.48578 16.9099C6.42936 16.9165 4.37073 16.9187 2.3143 16.9076C2.0432 16.9076 1.97708 16.9914 1.97928 17.2471C1.9881 19.2771 1.9881 21.307 1.97928 23.3348C1.97928 23.5751 2.0432 23.65 2.28786 23.6478C3.30615 23.6346 4.32665 23.6412 5.34494 23.6412L5.34715 23.6434ZM23.6434 5.37139H23.639C23.639 4.3531 23.628 3.3326 23.6456 2.3143C23.65 2.0432 23.564 1.97708 23.3062 1.97928C21.296 1.9881 19.2837 1.98369 17.2735 1.98369C17.0355 1.98369 16.9172 2.10638 16.9187 2.35177C16.9187 4.39938 16.9209 6.44699 16.9121 8.4946C16.9121 8.70399 16.976 8.76571 17.1765 8.76571C19.2528 8.7613 21.3269 8.7635 23.4031 8.77011C23.5993 8.77011 23.65 8.70399 23.6478 8.51444C23.639 7.46749 23.6434 6.42054 23.6434 5.3736V5.37139ZM23.6257 38.4836C23.6346 38.391 23.6434 38.3469 23.6434 38.3028C23.6434 36.2178 23.639 34.1349 23.6434 32.0498C23.6434 31.8448 23.5839 31.7831 23.3789 31.7853C21.3225 31.7919 19.266 31.7941 17.2096 31.7853C16.9517 31.7853 16.9143 31.8823 16.9143 32.1115C16.9231 34.1217 16.9253 36.134 16.9121 38.1442C16.9121 38.4373 17.0068 38.4924 17.2713 38.4924C19.136 38.4836 20.9985 38.488 22.8631 38.488C23.11 38.488 23.3568 38.488 23.628 38.488L23.6257 38.4836ZM9.84131 5.25237C8.28301 6.79304 6.76659 8.29182 5.23915 9.80163C5.29204 9.85894 5.34494 9.91845 5.40225 9.97576C6.80406 11.3886 8.21248 12.7992 9.60547 14.2186C9.76637 14.3818 9.8391 14.406 10.011 14.2341C11.4261 12.8058 12.8499 11.3886 14.276 9.97135C14.395 9.85453 14.4104 9.79282 14.2826 9.66718C12.9601 8.35574 11.6443 7.03769 10.3262 5.72184C10.1521 5.54772 9.97355 5.38021 9.84131 5.25017V5.25237ZM30.842 26.1539C29.2374 27.7342 27.7033 29.244 26.1627 30.7626C26.2574 30.8508 26.339 30.9213 26.4139 30.9985C27.7452 32.3275 29.0765 33.6566 30.41 34.9857C30.8486 35.4243 30.7472 35.3868 31.1549 34.9813C32.473 33.6654 33.7888 32.3452 35.1135 31.0337C35.3009 30.8486 35.3295 30.7406 35.1223 30.5334C33.7911 29.2175 32.473 27.8863 31.1572 26.555C31.0227 26.4205 30.9213 26.253 30.8442 26.1516L30.842 26.1539ZM26.1054 9.77298C27.6813 11.3599 29.1845 12.8741 30.7031 14.4016C30.7758 14.3465 30.8376 14.3112 30.886 14.2605C32.3077 12.8411 33.7227 11.415 35.1488 10C35.3207 9.83029 35.3207 9.72669 35.1488 9.55918C33.7602 8.18382 32.3804 6.80185 31.0029 5.41547C30.842 5.25237 30.7406 5.23253 30.562 5.41327C29.2065 6.78202 27.84 8.14194 26.4734 9.49967C26.3654 9.60767 26.2266 9.68261 26.1032 9.77298H26.1054ZM9.74873 35.3494C9.84351 35.27 9.90963 35.2237 9.96694 35.1686C11.4062 33.7404 12.8455 32.3077 14.2892 30.8816C14.3994 30.7736 14.3862 30.7163 14.2892 30.6172C12.8587 29.1911 11.4327 27.7606 10.0044 26.3324C9.94269 26.2707 9.87216 26.22 9.80604 26.1627C9.82588 26.1979 9.84571 26.2332 9.86555 26.2707C8.32048 27.7805 6.7732 29.2925 5.25017 30.7825C6.75116 32.3077 8.23672 33.8175 9.75094 35.3538L9.74873 35.3494Z" fill="white"/>
<path d="M60.0001 18.9222C60.2823 19.222 60.582 19.4732 60.8024 19.7818C61.6113 20.9147 61.7766 22.1556 61.219 23.4296C60.657 24.7146 59.6365 25.4662 58.2391 25.6756C57.9768 25.7152 57.7079 25.7219 57.4434 25.7219C55.5324 25.7263 53.6237 25.7219 51.7127 25.7219C51.6047 25.7219 51.4967 25.7219 51.3733 25.7219V12.8124C51.4548 12.808 51.5342 12.8014 51.6135 12.8014C53.3944 12.797 55.1754 12.7926 56.9563 12.7926C58.8672 12.7926 60.4454 14.0644 60.7958 15.9379C60.9898 16.9804 60.7121 17.937 60.0949 18.7966C60.0641 18.8407 60.0288 18.8847 60.0001 18.9222ZM53.4518 20.2777C53.4275 20.3284 53.4143 20.3461 53.4143 20.3615C53.4209 21.3886 53.4341 22.4179 53.4363 23.445C53.4363 23.6324 53.5399 23.6434 53.6854 23.6434C55.063 23.6412 56.4383 23.6478 57.8159 23.6412C58.7107 23.6368 59.3786 23.0108 59.4601 22.1159C59.5395 21.2387 58.9818 20.4673 58.1024 20.3328C57.6175 20.2579 57.115 20.2821 56.6213 20.2799C55.5655 20.2733 54.5119 20.2799 53.454 20.2799L53.4518 20.2777ZM55.4641 14.8865C55.4641 14.8865 55.4641 14.8931 55.4641 14.8953C54.8756 14.8953 54.2893 14.9019 53.7008 14.8909C53.5002 14.8865 53.4297 14.946 53.4319 15.1554C53.4407 16.1186 53.4363 17.084 53.4275 18.0472C53.4275 18.2477 53.5047 18.3006 53.6876 18.294C54.0182 18.283 54.3488 18.294 54.6794 18.2896C55.5501 18.2742 56.4251 18.294 57.2935 18.2257C58.2391 18.153 58.8628 17.3463 58.7967 16.3897C58.7372 15.5455 57.9856 14.8821 57.0885 14.8821C56.5463 14.8821 56.0041 14.8821 55.4641 14.8821V14.8865Z" fill="white"/>
<path d="M83.5223 26.037C80.1632 26.0679 77.7145 24.3531 76.835 21.7853C75.9424 19.1801 76.2884 16.7357 78.1024 14.6176C79.264 13.2621 80.8002 12.5744 82.601 12.5017C85.6713 12.3782 88.444 14.5691 89.1009 17.8378C89.588 20.2557 88.9554 22.3738 87.2781 24.1481C86.0768 25.4177 84.5494 26.0326 83.5223 26.037ZM87.1745 18.8429C87.1921 18.3932 87.0092 17.5601 86.5683 16.793C84.8932 13.8836 81.0272 13.7536 79.2 16.544C78.0473 18.3051 78.1751 20.767 79.5064 22.4113C80.82 24.0335 83.1299 24.4876 84.9153 23.4142C86.4559 22.4862 87.1723 21.0668 87.1745 18.8429Z" fill="white"/>
<path d="M97.6549 25.1642C96.3941 25.7285 95.1334 25.8827 93.8418 25.4882C92.883 25.1973 92.1028 24.6352 91.4944 23.8373C90.3263 22.3033 90.2006 20.0198 91.3181 18.3844C92.9073 16.0547 95.118 15.7836 97.6373 16.6762V16.2288C97.9679 16.2288 98.2764 16.2288 98.585 16.2288C98.887 16.2288 99.1911 16.2288 99.4931 16.2266C99.665 16.2266 99.7466 16.2729 99.7466 16.4823C99.7356 19.438 99.7356 22.3959 99.7356 25.3516C99.7356 25.7218 99.7356 25.7263 99.3763 25.724C98.9178 25.724 98.4572 25.724 97.9987 25.7196C97.6306 25.7152 97.6306 25.713 97.6637 25.3471C97.6681 25.3031 97.6593 25.259 97.6549 25.162V25.1642ZM97.6461 20.9786C97.6461 20.4739 97.6505 19.9691 97.6417 19.4644C97.6417 19.3652 97.6064 19.2396 97.5403 19.1713C96.3787 17.9899 94.0071 17.851 92.9734 19.6055C92.4091 20.5642 92.5348 21.9925 93.293 22.808C94.4038 24.0049 96.3919 23.8792 97.5293 22.775C97.602 22.7044 97.6395 22.5678 97.6417 22.462C97.6527 21.9661 97.6461 21.4723 97.6461 20.9764V20.9786Z" fill="white"/>
<path d="M74.6859 18.3006H71.6795C71.6795 18.5188 71.6795 18.7172 71.6795 18.9156C71.6817 19.9251 71.6795 20.9345 71.6928 21.9418C71.6994 22.4443 71.8757 22.8874 72.1975 23.2797C72.4047 23.5332 72.6582 23.672 72.9844 23.6434C73.3414 23.6103 73.6941 23.5552 74.0511 23.531C74.1195 23.5266 74.2517 23.6015 74.2605 23.6544C74.3509 24.2605 74.4236 24.8711 74.4986 25.4794C74.4986 25.497 74.4942 25.5147 74.4876 25.5477C73.7095 25.5742 72.9381 25.8453 72.1512 25.5962C70.7428 25.151 69.9669 24.1151 69.7311 22.7309C69.5724 21.7919 69.6341 20.8133 69.6077 19.8523C69.5945 19.3476 69.6055 18.8451 69.6055 18.3073H67.2405V16.2288C67.4917 16.2288 67.7452 16.2288 67.9987 16.2288C68.4307 16.2332 68.8605 16.2332 69.2925 16.2464C69.5349 16.253 69.6275 16.1737 69.6209 15.9114C69.5989 14.9658 69.6099 14.0203 69.5923 13.0769C69.5878 12.8543 69.6584 12.7926 69.8744 12.7992C70.4056 12.8168 70.939 12.8168 71.4701 12.8102C71.6355 12.8102 71.6994 12.8565 71.6972 13.0262C71.6839 13.9806 71.6817 14.935 71.6663 15.8894C71.6619 16.2112 71.6707 16.2332 71.9881 16.2332C72.7507 16.2332 73.5111 16.231 74.2738 16.2288C74.7256 16.2288 74.7234 16.2288 74.7212 16.6718C74.7168 17.1854 74.719 17.6989 74.7168 18.2125C74.7168 18.2301 74.7058 18.2455 74.6859 18.3006Z" fill="white"/>
<path d="M119.471 18.8384C118.785 18.391 118.089 18.2367 117.346 18.2984C117.104 18.3183 116.85 18.3668 116.63 18.4659C116.193 18.6599 116.114 19.1977 116.506 19.4666C116.8 19.6672 117.159 19.7994 117.507 19.8788C118.397 20.0838 119.255 20.3438 120.011 20.8861C121.303 21.8096 121.536 24.3531 119.539 25.2987C118.468 25.8056 117.351 25.8365 116.242 25.4816C115.565 25.2656 114.924 24.9372 114.269 24.6551C114.19 24.6198 114.124 24.5515 114.053 24.503C114.399 23.9277 114.734 23.3723 115.083 22.7904C115.153 22.8235 115.226 22.8521 115.294 22.8896C116.103 23.315 116.925 23.6941 117.873 23.6346C118.056 23.6235 118.241 23.6037 118.415 23.5574C118.677 23.4891 118.889 23.3414 118.951 23.0615C119.012 22.7816 118.863 22.5524 118.642 22.4377C118.278 22.2526 117.895 22.0917 117.5 21.9881C116.837 21.8162 116.154 21.7126 115.559 21.3357C114.584 20.7163 114.104 19.8347 114.234 18.6886C114.362 17.5623 115.034 16.7798 116.092 16.4448C117.547 15.9841 118.973 16.1737 120.315 16.9121C120.386 16.9517 120.474 17.106 120.45 17.1501C120.141 17.7077 119.813 18.2566 119.469 18.8406L119.471 18.8384Z" fill="white"/>
<path d="M108.025 17.0135C107.664 17.624 107.32 18.2037 106.972 18.7922C106.78 18.7018 106.603 18.6114 106.421 18.5343C105.775 18.2654 105.105 18.2169 104.426 18.3535C104.177 18.402 103.919 18.4968 103.824 18.7767C103.705 19.1206 103.789 19.4093 104.124 19.5636C104.485 19.7311 104.873 19.8479 105.261 19.9427C106.088 20.1411 106.894 20.3747 107.558 20.939C108.104 21.404 108.437 21.9771 108.455 22.7199C108.497 24.3575 107.65 25.356 106.017 25.6271C105.005 25.7946 104.045 25.6425 103.108 25.2722C102.665 25.0981 102.239 24.8821 101.805 24.6859C101.607 24.5956 101.556 24.4809 101.684 24.2782C101.951 23.8616 102.206 23.4362 102.447 23.0042C102.552 22.8146 102.638 22.7926 102.83 22.9006C103.595 23.3392 104.402 23.6566 105.303 23.6302C105.53 23.6235 105.759 23.5795 105.977 23.5155C106.22 23.445 106.394 23.2731 106.44 23.0174C106.487 22.764 106.354 22.5568 106.154 22.4333C105.922 22.2923 105.669 22.171 105.411 22.0939C104.955 21.9595 104.481 21.8867 104.025 21.7523C102.887 21.415 102.034 20.767 101.785 19.5371C101.503 18.142 102.246 16.8481 103.646 16.4228C105.16 15.9621 106.617 16.2023 108.027 17.009L108.025 17.0135Z" fill="white"/>
<path d="M63.4979 16.2618C63.5574 16.253 63.6103 16.2398 63.661 16.2376C64.2296 16.231 64.7983 16.2266 65.3691 16.2244C65.5146 16.2244 65.6226 16.242 65.6226 16.4514C65.6116 19.4071 65.6072 22.3628 65.605 25.3163C65.605 25.7306 65.6116 25.7284 65.1994 25.724C64.7123 25.7196 64.2274 25.7174 63.7403 25.724C63.5574 25.724 63.4802 25.6623 63.4802 25.4662C63.4846 22.4377 63.4802 19.4071 63.4802 16.3787C63.4802 16.3434 63.489 16.3081 63.4957 16.2596L63.4979 16.2618Z" fill="white"/>
<path d="M110.146 20.9654C110.146 19.471 110.148 17.9744 110.141 16.4801C110.141 16.3037 110.19 16.2266 110.37 16.2266C110.921 16.231 111.47 16.2354 112.021 16.231C112.202 16.231 112.253 16.3081 112.253 16.4823C112.248 19.4358 112.248 22.3893 112.25 25.3428C112.25 25.7219 112.253 25.7219 111.871 25.7219C111.384 25.7219 110.899 25.713 110.412 25.7219C110.205 25.7263 110.148 25.6513 110.15 25.4485C110.159 23.9542 110.154 22.4576 110.154 20.9632C110.152 20.9632 110.148 20.9632 110.146 20.9632V20.9654Z" fill="white"/>
</svg>
