<svg width="115" height="28" viewBox="0 0 115 28" fill="none" xmlns="http://www.w3.org/2000/svg">
<path d="M0 3.35199C0.0870143 3.39221 0.183436 3.41981 0.259573 3.47501C0.940989 3.96854 1.61359 4.47411 2.30088 4.95942C2.47638 5.08361 2.52342 5.21778 2.52253 5.42095C2.51489 7.06302 2.51812 8.7048 2.51812 10.3469C2.51812 14.1489 2.51812 17.951 2.51812 21.753C2.51812 21.8693 2.51812 21.9855 2.51812 22.147C2.65482 22.1109 2.76359 22.0865 2.86971 22.0533C5.04301 21.3704 7.21572 20.687 9.38843 20.0026C10.0504 19.7941 10.7151 19.593 11.3727 19.3711C12.2852 19.0628 12.8323 18.4216 13.0245 17.483C13.0595 17.3124 13.0595 17.1333 13.0607 16.958C13.0645 16.2745 13.0621 15.5913 13.0621 14.8673C13.3658 14.7881 13.6607 14.675 13.9646 14.6389C14.7433 14.5461 15.4933 15.197 15.5168 15.9809C15.5359 16.6157 15.5353 17.2519 15.515 17.8867C15.5003 18.3408 15.3486 18.7692 15.1426 19.172C14.5073 20.4127 13.5451 21.2788 12.2014 21.7013C8.25637 22.9412 4.31132 24.1813 0.365401 25.4179C0.249578 25.4543 0.12229 25.454 0.000293967 25.4708C0 18.0978 0 10.725 0 3.35199Z" fill="white"/>
<path d="M115 22.3613C114.795 22.3534 114.591 22.3399 114.387 22.3384C113.926 22.3349 113.466 22.3373 113.006 22.3373C112.911 22.3373 112.816 22.3373 112.697 22.3373V21.4139C112.644 21.4306 112.612 21.4312 112.595 21.4477C111.846 22.1687 110.929 22.4826 109.91 22.534C109.008 22.5795 108.129 22.4606 107.31 22.0595C105.968 21.4016 105.057 20.3432 104.598 18.936C104.084 17.3585 104.146 15.7839 104.939 14.3048C105.908 12.4972 107.421 11.5204 109.512 11.4969C110.309 11.4878 111.076 11.5982 111.779 11.9845C112.085 12.1525 112.363 12.3721 112.669 12.5791C112.743 12.3072 112.66 12.0157 112.722 11.7053C113.48 11.698 114.24 11.6909 115 11.6836V22.3616V22.3613ZM112.697 17.0026C112.697 16.4457 112.691 15.8885 112.701 15.3315C112.704 15.153 112.649 15.0165 112.539 14.8797C111.956 14.1598 111.212 13.7417 110.285 13.6478C109.127 13.53 108.16 13.8829 107.437 14.8136C106.766 15.6782 106.596 16.6653 106.772 17.724C106.977 18.9565 107.987 20.2915 109.602 20.3919C110.795 20.4662 111.795 20.0916 112.544 19.1283C112.651 18.99 112.704 18.852 112.701 18.6738C112.691 18.1168 112.697 17.5596 112.697 17.0026Z" fill="white"/>
<path d="M3.14539 5.18639C3.68629 5.01581 4.23542 4.84229 4.78455 4.66937C7.14482 3.92657 9.50332 3.1785 11.8656 2.44304C12.9686 2.09954 14.0754 2.08222 15.1304 2.59601C16.6003 3.31179 17.4789 4.49938 17.7976 6.10005C17.8414 7.44853 17.9102 8.79847 17.4851 10.1108C17.2476 10.8442 16.9069 11.5201 16.3992 12.1064C16.3739 12.1355 16.3531 12.1683 16.3319 12.2006C16.3272 12.2077 16.3301 12.2197 16.3319 12.193C16.7046 12.5104 17.0839 12.7899 17.4116 13.1205C18.1898 13.9044 18.5943 14.8553 18.5881 15.9686C18.5846 16.653 18.6028 17.3382 18.5737 18.0214C18.5075 19.5848 18.0639 21.0211 17.0503 22.2463C16.1767 23.302 15.059 23.999 13.7608 24.4095C10.2638 25.5148 6.76413 26.6114 3.26563 27.7121C3.14451 27.7503 3.02487 27.7925 2.87612 27.8425C2.0777 27.2585 1.26724 26.6657 0.419434 26.0454C0.528495 26.0025 0.601399 25.9687 0.677831 25.9447C4.59583 24.7116 8.52147 23.5014 12.4295 22.2372C14.4026 21.5989 15.6034 20.2008 16.075 18.185C16.1058 18.0531 16.1152 17.914 16.1164 17.778C16.1208 17.1914 16.1276 16.6046 16.1164 16.0182C16.0949 14.9105 15.1301 13.9948 14.0257 14.0365C13.8135 14.0444 13.5971 14.0908 13.3937 14.1545C10.8735 14.9428 8.35538 15.7373 5.83696 16.5309C5.76288 16.5541 5.69056 16.5828 5.59032 16.6184V20.5739C4.76633 20.8332 3.96674 21.0845 3.16626 21.3364C3.10571 21.108 3.08866 5.5754 3.1451 5.18697L3.14539 5.18639ZM5.60002 14.0086C5.70261 13.981 5.78728 13.9613 5.86959 13.9352C8.09051 13.2385 10.3114 12.5415 12.5318 11.8433C12.9639 11.7074 13.3731 11.5224 13.7388 11.252C14.8268 10.447 15.3109 9.33927 15.3527 8.01575C15.3656 7.6056 15.3471 7.19428 15.3565 6.78383C15.3697 6.21015 15.1543 5.73188 14.7512 5.34023C14.1398 4.74629 13.4146 4.54342 12.5909 4.80002C10.5366 5.43917 8.48531 6.08801 6.43283 6.73333C6.15415 6.82082 5.87635 6.91008 5.60002 6.99786V14.0083V14.0086Z" fill="white"/>
<path d="M29.189 21.4506V22.2856C28.955 22.347 27.2967 22.364 26.8884 22.3155C26.8273 22.1083 26.802 8.09209 26.8661 7.55011C27.6133 7.31436 28.3744 7.0742 29.1755 6.82141C29.1813 6.95617 29.1905 7.06832 29.1908 7.18077C29.1916 8.88156 29.191 10.5824 29.1919 12.2831C29.1919 12.385 29.1996 12.4866 29.2049 12.6146C29.2669 12.5791 29.2942 12.57 29.3127 12.5518C29.9621 11.9311 30.7529 11.614 31.6319 11.5265C32.5978 11.4303 33.555 11.4951 34.4507 11.9106C36.1116 12.6813 37.1185 13.9913 37.4942 15.7631C37.7867 17.1418 37.6479 18.4938 36.9647 19.7466C36.1798 21.1861 35.0069 22.1432 33.3616 22.448C32.5435 22.5994 31.7247 22.5854 30.9166 22.3646C30.3701 22.2151 29.8804 21.9585 29.4515 21.5871C29.3874 21.5316 29.3201 21.4794 29.2543 21.426C29.2325 21.4342 29.2104 21.4427 29.1887 21.4509L29.189 21.4506ZM29.1913 17.0003C29.1913 17.5576 29.1966 18.1151 29.1881 18.6723C29.1855 18.85 29.2393 18.9906 29.3468 19.1283C29.9401 19.8884 30.7156 20.303 31.6765 20.386C32.9538 20.4961 33.9583 20.0373 34.6577 18.9592C35.178 18.1571 35.3132 17.2669 35.1445 16.3418C34.9349 15.193 34.3252 14.3177 33.2255 13.8509C32.1351 13.3882 30.3646 13.5347 29.3186 14.9226C29.2319 15.0376 29.1881 15.1536 29.1896 15.2992C29.1952 15.8665 29.1919 16.4334 29.1916 17.0006L29.1913 17.0003Z" fill="white"/>
<path d="M99.7346 12.56V7.55801C100.521 7.31022 101.282 7.07065 102.043 6.83078C102.105 7.06008 102.128 21.8311 102.072 22.2867C101.869 22.3493 100.339 22.3713 99.7602 22.3158C99.7499 22.0293 99.7393 21.7357 99.7279 21.4203C99.6723 21.4459 99.6435 21.4518 99.6253 21.4688C98.9547 22.0915 98.1537 22.4244 97.2497 22.5099C95.9416 22.6335 94.7046 22.4192 93.6242 21.63C92.399 20.7348 91.6526 19.5308 91.4195 18.027C91.2199 16.7387 91.3457 15.4862 91.9663 14.3239C92.7332 12.8882 93.88 11.9123 95.5147 11.5961C96.3699 11.4308 97.228 11.4414 98.0746 11.678C98.6108 11.828 99.0897 12.0844 99.5112 12.4478C99.563 12.4924 99.6176 12.5333 99.672 12.5744C99.677 12.5782 99.6905 12.5705 99.7343 12.5603L99.7346 12.56ZM99.7429 17.0012C99.7429 16.4442 99.737 15.8873 99.7464 15.3303C99.7493 15.1515 99.6914 15.0127 99.5829 14.8773C98.9368 14.072 98.0914 13.6639 97.0663 13.6263C96.0324 13.5887 95.1825 13.9616 94.5155 14.7652C93.584 15.8873 93.556 17.6694 94.1863 18.7701C94.7254 19.7113 95.5115 20.302 96.6195 20.3875C97.8233 20.4803 98.8325 20.0974 99.5909 19.1288C99.6994 18.9906 99.7485 18.8482 99.7458 18.672C99.7382 18.1151 99.7429 17.5581 99.7429 17.0012Z" fill="white"/>
<path d="M56.5387 21.3813C56.5225 21.992 56.5325 22.5431 56.5308 23.0936C56.529 23.6508 56.5305 24.2078 56.5305 24.765V26.4461C55.7509 26.6916 54.9898 26.9311 54.2002 27.1798V11.7089H56.519V12.6178C56.6119 12.5594 56.6545 12.5403 56.6872 12.5107C57.3257 11.9302 58.087 11.6181 58.9354 11.5301C59.9428 11.4255 60.9388 11.4963 61.8636 11.9461C63.4957 12.74 64.482 14.0541 64.8395 15.8192C65.0982 17.0969 64.9906 18.3588 64.405 19.537C63.636 21.0851 62.4363 22.1279 60.6951 22.4447C59.5939 22.6452 58.5068 22.5901 57.4903 22.0604C57.2325 21.9262 57.0046 21.7345 56.7645 21.5672C56.7036 21.5246 56.6489 21.4729 56.5384 21.3816L56.5387 21.3813ZM56.5305 16.9889C56.5305 17.5558 56.5346 18.123 56.5278 18.6899C56.5258 18.8558 56.5722 18.9891 56.6739 19.1201C57.3601 20.0041 58.2731 20.4042 59.3799 20.4016C60.4732 20.399 61.3342 19.9442 61.9345 19.0411C62.6471 17.9692 62.7211 16.8095 62.2717 15.6239C61.9651 14.8151 61.4065 14.2068 60.599 13.8641C59.4578 13.3794 57.7075 13.5562 56.6783 14.8891C56.5778 15.0191 56.5252 15.1504 56.5275 15.3174C56.5349 15.8747 56.5302 16.4319 56.5302 16.9892L56.5305 16.9889Z" fill="white"/>
<path d="M77.1147 22.319H74.7918V21.4189C74.738 21.4327 74.7042 21.4309 74.6877 21.4467C73.9398 22.1731 73.0203 22.4831 72.0008 22.5336C71.0675 22.5797 70.1603 22.452 69.321 22.0172C67.9129 21.2873 67.004 20.137 66.5977 18.6186C66.2026 17.1421 66.3008 15.6841 67.0228 14.3165C67.7783 12.8858 68.923 11.9108 70.546 11.6017C71.6831 11.385 72.8128 11.4223 73.8658 11.9813C74.1741 12.1451 74.4516 12.3668 74.758 12.5717C74.832 12.3069 74.7486 12.015 74.8085 11.7167H77.0885C77.1497 11.927 77.1767 21.7304 77.115 22.3193L77.1147 22.319ZM74.7859 17.0196C74.7859 16.443 74.7821 15.8664 74.7885 15.2901C74.79 15.1448 74.7518 15.0294 74.6615 14.9152C74.0962 14.1967 73.3684 13.7766 72.4556 13.6565C70.9085 13.4531 69.6994 14.2123 69.105 15.5264C68.8037 16.1926 68.744 16.8981 68.8483 17.6206C69.0412 18.9556 70.0927 20.2844 71.6792 20.3898C72.8592 20.4682 73.8552 20.1077 74.611 19.1667C74.7333 19.0146 74.7941 18.8602 74.79 18.6611C74.7785 18.1142 74.7862 17.5666 74.7859 17.0196Z" fill="white"/>
<path d="M89.3074 22.3182H86.956V21.9544C86.956 20.0871 86.961 18.2199 86.9513 16.3526C86.9495 16.0329 86.9142 15.707 86.844 15.3952C86.5812 14.227 85.7589 13.5937 84.561 13.6222C83.4892 13.6477 82.6561 14.0843 82.1373 15.0508C82.0517 15.21 82.0138 15.3711 82.0144 15.5535C82.0188 17.6847 82.017 19.8159 82.017 21.9471V22.3161H79.6782V11.7068C80.4493 11.6839 81.2154 11.6994 82.0159 11.6962V12.7614C82.0976 12.6909 82.1334 12.6651 82.1634 12.6334C82.8704 11.8917 83.7567 11.5571 84.7618 11.503C85.4917 11.464 86.214 11.5154 86.8931 11.8142C88.1657 12.3744 88.8953 13.3762 89.179 14.7091C89.2657 15.1166 89.2992 15.542 89.3018 15.9595C89.3142 17.9636 89.3074 19.9676 89.3074 21.9717V22.3182Z" fill="white"/>
<path d="M46.4256 9.35926C47.2002 9.11469 47.9609 8.87424 48.7647 8.62057V11.6933H52.0039V13.7949H48.7861C48.7794 13.9199 48.7702 14.0151 48.7699 14.1099C48.7691 15.5861 48.7661 17.0623 48.7729 18.5385C48.7738 18.761 48.7996 18.9886 48.8517 19.2049C49.0122 19.8749 49.4731 20.2537 50.1625 20.3062C50.7713 20.3526 51.3519 20.2531 51.9251 19.9433C52.1844 20.5816 52.3943 21.2252 52.6303 21.8696C52.595 21.9001 52.5712 21.9333 52.5389 21.9468C51.2493 22.4911 49.9229 22.6326 48.5859 22.1837C47.2769 21.7442 46.5699 20.7921 46.4417 19.4184C46.4235 19.2243 46.4188 19.0282 46.4185 18.833C46.4167 17.2787 46.4176 15.7241 46.4176 14.1698V13.801H43.7896V11.703H46.4067C46.4344 10.9059 46.4023 10.1382 46.4259 9.35926H46.4256Z" fill="white"/>
<path d="M13.8073 1.63036C13.72 1.63447 13.6853 1.63946 13.6509 1.63682C12.9583 1.58691 12.2851 1.68526 11.6252 1.89312C8.80985 2.78007 5.99335 3.6632 3.18038 4.55778C2.9502 4.63089 2.78999 4.60681 2.59774 4.45972C1.98452 3.99027 1.35367 3.54312 0.730456 3.08658C0.637268 3.01818 0.546726 2.94625 0.417969 2.8473C0.691358 2.75688 0.925944 2.67585 1.16288 2.60157C3.68071 1.81092 6.19854 1.02027 8.71667 0.230794C10.1797 -0.2278 11.5367 0.0035521 12.7922 0.866719C13.0824 1.06607 13.3631 1.27892 13.6471 1.48708C13.6903 1.51879 13.7276 1.55843 13.807 1.63036H13.8073Z" fill="white"/>
<path d="M42.1356 22.3164H39.8218V11.712H42.1356V22.3164Z" fill="white"/>
<path d="M40.9716 9.81808C40.0873 9.81603 39.4221 9.14399 39.4209 8.25117C39.4197 7.37127 40.1029 6.69042 40.9848 6.69248C41.8635 6.69483 42.5514 7.38008 42.5575 8.25C42.5643 9.19155 41.7597 9.86946 40.9716 9.81808Z" fill="white"/>
<path d="M6.19531 10.6361C6.62186 10.4998 7.05781 10.3595 7.49435 10.2218C8.61349 9.86921 9.7335 9.51924 10.852 9.16575C11.7457 8.88332 12.2887 8.1508 12.2969 7.21306C12.3019 6.65641 12.2978 6.09975 12.2978 5.55102C13.3393 4.99525 14.1777 5.39307 14.5672 6.05248C14.6636 6.21572 14.7427 6.41478 14.7495 6.60033C14.7742 7.27325 14.8203 7.95057 14.6974 8.6182C14.4626 9.89357 13.7576 10.8075 12.5109 11.2165C10.4487 11.8932 8.37273 12.5277 6.30232 13.1792C6.27527 13.1877 6.24617 13.1883 6.19531 13.1959V10.6358V10.6361Z" fill="white"/>
</svg>
