<svg width="122" height="24" viewBox="0 0 122 24" fill="none" xmlns="http://www.w3.org/2000/svg">
<path d="M11.3865 23.3344C11.322 23.3263 11.2581 23.3137 11.1936 23.3104C8.17877 23.1651 5.58847 22.0357 3.44455 19.9181C1.75739 18.2516 0.695259 16.2367 0.228666 13.9114C0.122126 13.3803 0.0549234 12.8432 0.0314299 12.3012C0.0226881 12.1051 -0.00299089 11.9089 0.000287275 11.7128C0.0456353 8.5876 1.09738 5.85907 3.26425 3.59113C4.92847 1.84933 6.95492 0.73912 9.31521 0.244117C10.291 0.0392309 11.2783 -0.0399915 12.2732 0.0190156C15.2241 0.193305 17.7674 1.30679 19.878 3.3775C21.4198 4.89038 22.4486 6.70594 22.9857 8.79795C23.1382 9.39076 23.237 9.99285 23.2922 10.6031C23.3359 11.0823 23.3518 11.5625 23.3348 12.0428C23.2594 14.1676 22.6666 16.1367 21.5144 17.9255C20.0201 20.2453 17.9576 21.8489 15.3416 22.7345C14.5488 23.0028 13.7342 23.1771 12.9004 23.2563C12.6442 23.2809 12.3863 23.2929 12.1295 23.312C12.0738 23.3164 12.0186 23.3273 11.9629 23.335H11.3859L11.3865 23.3344ZM8.94204 12.8847C8.90489 13.0104 8.93002 13.124 8.95953 13.2377C9.05678 13.613 9.25238 13.937 9.4966 14.2326C9.92112 14.7462 10.4424 15.1357 11.0406 15.4242C11.534 15.6619 12.0508 15.8121 12.6016 15.8264C12.925 15.8345 13.2474 15.8138 13.5681 15.7684C14.3221 15.6624 15.0274 15.4188 15.6738 15.015C16.7326 14.3534 17.4751 13.4251 17.9357 12.2723C18.3974 11.1178 18.5181 9.92783 18.2165 8.71545C17.8079 7.07145 16.8616 5.80772 15.4148 4.93354C14.0287 4.09597 12.5202 3.87906 10.9439 4.1812C9.05568 4.54344 7.66902 5.60556 6.78063 7.30639C6.38671 8.05982 6.17909 8.86406 6.18237 9.7224C6.19002 11.6532 6.18401 13.5841 6.18401 15.5149C6.18401 15.5543 6.18619 15.5936 6.18292 15.6329C6.18073 15.6613 6.17199 15.6898 6.16434 15.7253H5.77751C5.64639 15.7253 5.51526 15.7225 5.38413 15.7258C5.2612 15.7291 5.13609 15.7105 4.98802 15.7428C5.03064 15.8056 5.05522 15.8498 5.08691 15.8875C5.8174 16.7459 6.54898 17.6037 7.28001 18.4615C7.59144 18.8275 7.90177 19.1941 8.21429 19.5596C8.24598 19.5968 8.26892 19.652 8.35088 19.6432C8.35197 19.587 8.3547 19.5318 8.3547 19.4771C8.35743 16.3667 8.36017 13.2568 8.36181 10.1464C8.36181 9.69672 8.43229 9.25908 8.58472 8.83675C8.918 7.91449 9.50042 7.20422 10.3855 6.7633C11.2062 6.35462 12.0809 6.25519 12.9769 6.39123C14.1292 6.56607 15.0225 7.16269 15.6623 8.13412C16.036 8.70179 16.2666 9.32465 16.3092 10.0071C16.3392 10.49 16.2808 10.9665 16.1513 11.4325C15.7098 13.0219 14.4756 14.0802 12.7589 14.2381C12.3306 14.2774 11.9039 14.2638 11.4777 14.2113C10.9887 14.1512 10.5172 14.0277 10.073 13.8119C9.68345 13.6229 9.33706 13.3754 9.0606 13.0377C9.01962 12.988 8.98138 12.9361 8.94149 12.8853L8.94204 12.8847ZM12.3044 8.43244C12.2672 8.50292 12.2437 8.54499 12.2229 8.5876C12.0853 8.86516 11.9427 9.14052 11.8143 9.42245C11.7695 9.52079 11.7072 9.55521 11.6077 9.56778C11.2832 9.60985 10.9592 9.65793 10.6352 9.70546C10.6063 9.70983 10.5789 9.7224 10.532 9.73715C10.5844 9.79015 10.6259 9.83331 10.6685 9.87538C10.8904 10.0917 11.1122 10.3092 11.3362 10.5234C11.3876 10.5725 11.4089 10.6179 11.3941 10.6944C11.3346 11.0074 11.2837 11.3216 11.2302 11.6358C11.2215 11.6882 11.216 11.7417 11.2067 11.815C11.2695 11.7855 11.3089 11.7685 11.3466 11.7489C11.6252 11.603 11.9055 11.4609 12.1803 11.3079C12.2727 11.2566 12.3437 11.262 12.4327 11.3112C12.7081 11.4626 12.9884 11.6057 13.267 11.7516C13.3042 11.7713 13.3435 11.7876 13.396 11.8117C13.3927 11.7652 13.3927 11.7357 13.3883 11.7073C13.3326 11.3719 13.2796 11.0353 13.2168 10.7009C13.2015 10.6201 13.2222 10.572 13.278 10.519C13.5091 10.2994 13.7358 10.0753 13.9642 9.85243C13.9997 9.81801 14.0319 9.78086 14.0789 9.73169C14.0205 9.71803 13.9877 9.70765 13.9538 9.70273C13.6298 9.65574 13.3058 9.60766 12.9813 9.56505C12.8895 9.55303 12.8381 9.51205 12.7983 9.42682C12.6655 9.14216 12.5223 8.86188 12.383 8.5805C12.3623 8.53898 12.3393 8.49855 12.3044 8.43244Z" fill="white"/>
<path d="M65.0406 15.174C65.0723 15.1095 65.092 15.0712 65.1095 15.0325C66.6365 11.5702 68.1636 8.10732 69.6923 4.64557C69.7284 4.56362 69.7825 4.48604 69.8431 4.42047C69.9005 4.35873 69.9852 4.33852 70.0715 4.33852C70.7884 4.33852 71.5052 4.33688 72.2215 4.33961C72.434 4.34016 72.5826 4.49095 72.5919 4.7013C72.5935 4.74501 72.5924 4.78872 72.5924 4.83243C72.5924 9.34046 72.5924 13.8485 72.5924 18.356C72.5924 18.4041 72.5941 18.4521 72.5913 18.5002C72.581 18.6985 72.4373 18.8433 72.2379 18.8504C72.0892 18.8553 71.9406 18.8521 71.792 18.8521C71.368 18.8521 70.9441 18.8504 70.5201 18.8526C70.3775 18.8532 70.2606 18.8056 70.1863 18.6843C70.1535 18.6308 70.1387 18.5636 70.1273 18.5008C70.118 18.4499 70.1245 18.3964 70.1245 18.344C70.1245 15.4608 70.1245 12.5782 70.1245 9.69505C70.1245 9.64533 70.1245 9.59506 70.1245 9.54534C70.113 9.54261 70.1016 9.53988 70.0901 9.53769C70.071 9.57813 70.0508 9.61856 70.0327 9.65899C69.2842 11.3374 68.5357 13.0158 67.7872 14.6937C67.2108 15.9853 66.6322 17.2758 66.059 18.5685C65.9722 18.7641 65.8416 18.8586 65.6241 18.8543C65.2351 18.8471 64.8461 18.8461 64.4577 18.8543C64.2353 18.8592 64.1014 18.7652 64.0124 18.5641C63.0639 16.4208 62.111 14.279 61.1593 12.1367C60.7943 11.315 60.4288 10.4933 60.0638 9.67155C60.0447 9.62839 60.0239 9.58632 59.9835 9.54534C59.9791 9.57157 59.972 9.59779 59.9704 9.62457C59.9682 9.65953 59.9698 9.6945 59.9698 9.72947C59.9698 12.5995 59.9698 15.469 59.9698 18.339C59.9698 18.3827 59.9704 18.4265 59.9698 18.4702C59.9644 18.6958 59.8158 18.8488 59.5901 18.851C59.2711 18.8543 58.952 18.8521 58.6329 18.8521C58.3838 18.8521 58.1346 18.8439 57.8855 18.8548C57.6806 18.8635 57.4681 18.7182 57.4773 18.4461C57.479 18.4024 57.4773 18.3587 57.4773 18.315C57.4773 13.8332 57.4773 9.35139 57.4773 4.87013C57.4773 4.80019 57.4763 4.72971 57.4844 4.66087C57.5058 4.48276 57.6478 4.35218 57.827 4.33961C57.8532 4.33797 57.8795 4.33906 57.9057 4.33906C58.6007 4.33906 59.2956 4.3418 59.9901 4.33742C60.2004 4.33579 60.3332 4.4243 60.4168 4.61607C61.934 8.08765 63.4529 11.5587 64.9712 15.0297C64.9882 15.0691 65.0078 15.1073 65.0395 15.1751L65.0406 15.174Z" fill="white"/>
<path d="M86.8549 11.5784C86.8588 12.3231 86.8052 13.0355 86.6544 13.7393C86.4326 14.7735 85.9649 15.693 85.3497 16.5448C84.8165 17.2835 84.1494 17.8692 83.3473 18.3008C82.6906 18.6538 81.9923 18.8822 81.2547 18.9854C80.2128 19.1313 79.1796 19.0827 78.1618 18.8128C77.1832 18.5538 76.3615 18.0266 75.6403 17.325C74.647 16.3591 74.0466 15.1838 73.7494 13.8431C73.5669 13.0202 73.5035 12.1859 73.5188 11.3451C73.5461 9.85571 73.9308 8.46795 74.6907 7.18291C75.2131 6.29945 75.9059 5.59136 76.7921 5.06959C77.498 4.6538 78.2388 4.33364 79.0496 4.19158C79.6473 4.08668 80.2483 4.07357 80.8515 4.11946C81.4607 4.16536 82.0546 4.28665 82.6239 4.50738C84.3422 5.1723 85.5409 6.36993 86.2436 8.06692C86.4987 8.68322 86.6539 9.32684 86.7479 9.98629C86.8243 10.5234 86.8593 11.0632 86.8538 11.5789L86.8549 11.5784ZM84.2248 11.5691C84.2187 10.979 84.1827 10.3922 84.0805 9.80982C83.9155 8.87008 83.5194 8.05545 82.8157 7.39545C82.3649 6.97256 81.8645 6.64311 81.2607 6.48903C80.751 6.359 80.2341 6.34315 79.7129 6.39451C79.084 6.45625 78.5147 6.66988 78.0192 7.0638C77.2931 7.64076 76.7675 8.35977 76.4894 9.25198C76.32 9.79725 76.232 10.3556 76.1971 10.9239C76.1501 11.6888 76.1637 12.4504 76.3096 13.2065C76.5107 14.2474 76.9713 15.15 77.7329 15.8946C78.1459 16.299 78.6273 16.5743 79.1955 16.6918C79.779 16.8125 80.3658 16.8169 80.9548 16.7388C81.5858 16.6552 82.1322 16.3973 82.5889 15.952C83.2571 15.3008 83.7221 14.5282 83.9756 13.6294C84.1657 12.9558 84.2302 12.2674 84.2253 11.5702L84.2248 11.5691Z" fill="white"/>
<path d="M56.5361 11.5259C56.5333 12.2657 56.4803 13 56.3164 13.7234C56.0859 14.7418 55.6171 15.6465 55.0063 16.4847C54.4992 17.1802 53.8704 17.7386 53.1197 18.1593C52.4657 18.5259 51.7669 18.7663 51.026 18.881C49.9322 19.0509 48.8477 18.999 47.7801 18.7056C46.8403 18.4477 46.0481 17.9358 45.3488 17.2643C44.3495 16.3044 43.7408 15.1341 43.4371 13.7938C43.2327 12.894 43.1715 11.981 43.2049 11.0609C43.2617 9.49124 43.7255 8.05048 44.5937 6.7414C45.0423 6.065 45.6143 5.51536 46.3022 5.08483C47.0338 4.62643 47.8074 4.27184 48.6625 4.11449C49.2236 4.01123 49.7885 3.98118 50.3584 4.01615C51.008 4.05603 51.6429 4.16913 52.2515 4.39805C53.9758 5.04713 55.1855 6.23438 55.9023 7.92591C56.1782 8.57663 56.3416 9.25903 56.4361 9.95892C56.5066 10.4791 56.5388 11.0014 56.5366 11.5264L56.5361 11.5259ZM45.8465 11.6106C45.852 12.0717 45.8864 12.6197 45.9962 13.1611C46.1891 14.1118 46.5999 14.9488 47.2681 15.6597C47.7375 16.159 48.2904 16.5011 48.9695 16.6223C49.4978 16.7163 50.0289 16.7212 50.5616 16.6584C51.2118 16.5819 51.78 16.3317 52.2526 15.8744C52.7378 15.4045 53.1251 14.8652 53.3989 14.2457C53.707 13.5496 53.854 12.8158 53.8895 12.0613C53.9277 11.2483 53.8933 10.4381 53.7414 9.63548C53.5715 8.7389 53.1836 7.96197 52.5159 7.32764C52.045 6.87963 51.5194 6.53487 50.8796 6.38462C50.4425 6.28191 49.9994 6.26005 49.5519 6.28901C48.8329 6.33545 48.1866 6.56547 47.6282 7.02605C46.8414 7.67458 46.3175 8.48976 46.0733 9.48304C45.9088 10.1529 45.8558 10.8347 45.846 11.6111L45.8465 11.6106Z" fill="white"/>
<path d="M94.2843 13.3644V13.5595C94.2843 15.1538 94.2843 16.7481 94.2843 18.3429C94.2843 18.4084 94.2849 18.4746 94.2761 18.539C94.2526 18.7128 94.115 18.8412 93.9401 18.8499C93.8183 18.8559 93.6954 18.8526 93.573 18.8526C93.0922 18.8526 92.6114 18.8515 92.1306 18.8532C92.0257 18.8532 91.9312 18.8324 91.8519 18.7608C91.7853 18.7002 91.7394 18.627 91.7323 18.5352C91.7274 18.4746 91.7246 18.4134 91.7246 18.3522C91.7246 13.8704 91.7246 9.38856 91.7246 4.90676C91.7246 4.8543 91.7241 4.80185 91.729 4.74995C91.7454 4.57129 91.8476 4.44836 92.024 4.41175C92.212 4.37296 92.4021 4.34291 92.5922 4.31614C93.3588 4.20905 94.1281 4.13256 94.9023 4.12874C95.4 4.126 95.8994 4.12874 96.3955 4.16043C97.2527 4.21561 98.0788 4.40246 98.847 4.80677C100.005 5.41542 100.678 6.38029 100.947 7.64293C100.985 7.82542 101.001 8.01501 101.008 8.20186C101.019 8.48542 101.016 8.76953 101.014 9.05364C101.01 9.62022 100.844 10.1442 100.601 10.6496C100.046 11.8029 99.1491 12.5618 97.946 12.9743C97.403 13.1606 96.8457 13.2819 96.2753 13.3491C95.7355 13.4131 95.1946 13.4202 94.6526 13.3939C94.5357 13.3885 94.4193 13.3765 94.2838 13.3661L94.2843 13.3644ZM94.275 11.167C94.3117 11.1773 94.3362 11.1866 94.3619 11.191C94.4439 11.2036 94.5258 11.2167 94.6083 11.2243C95.4197 11.3008 96.2135 11.215 96.9839 10.9501C97.5926 10.7403 97.9952 10.3004 98.2859 9.74424C98.3138 9.6907 98.3301 9.6306 98.3471 9.57159C98.4673 9.14652 98.4842 8.71052 98.4689 8.27344C98.4613 8.04615 98.4252 7.81941 98.3138 7.61616C98.0269 7.0922 97.6385 6.68462 97.0358 6.5289C96.9342 6.50268 96.8342 6.47154 96.732 6.44968C96.0524 6.3049 95.3667 6.26064 94.6744 6.32511C94.5417 6.33768 94.41 6.35789 94.275 6.37538V11.1675V11.167Z" fill="white"/>
<path d="M108.722 9.19131C108.722 9.07057 108.72 8.94927 108.723 8.82853C108.724 8.76788 108.726 8.7045 108.745 8.64823C108.793 8.50016 108.929 8.40346 109.097 8.40237C109.669 8.39963 110.241 8.39854 110.814 8.40237C111.038 8.404 111.185 8.5619 111.189 8.78755C111.19 8.82252 111.189 8.85748 111.189 8.89245C111.189 12.0504 111.189 15.2078 111.189 18.3658C111.189 18.4139 111.191 18.462 111.187 18.5101C111.175 18.6936 111.034 18.8357 110.85 18.8504C110.833 18.8521 110.815 18.8521 110.798 18.8521C110.23 18.8521 109.662 18.8493 109.094 18.8537C108.928 18.8548 108.766 18.7587 108.717 18.5871C108.703 18.5379 108.702 18.4838 108.701 18.4319C108.699 18.3019 108.701 18.1724 108.701 18.0238C108.666 18.0429 108.646 18.0495 108.632 18.0626C107.996 18.6434 107.245 18.9646 106.391 19.0378C105.146 19.1444 103.995 18.8761 102.974 18.1331C102.3 17.6424 101.829 16.989 101.486 16.2372C101.216 15.6444 101.055 15.0221 100.986 14.3741C100.879 13.3693 100.968 12.3853 101.311 11.4325C101.751 10.2103 102.533 9.27654 103.69 8.67172C104.222 8.39362 104.793 8.24064 105.391 8.18382C105.921 8.13356 106.447 8.14995 106.965 8.28053C107.569 8.43296 108.104 8.71762 108.58 9.11537C108.616 9.14542 108.653 9.17547 108.689 9.20552C108.7 9.2006 108.711 9.19514 108.722 9.19022V9.19131ZM108.778 13.6223C108.783 13.3475 108.762 12.9951 108.699 12.646C108.608 12.1367 108.433 11.6614 108.125 11.2407C107.804 10.8036 107.383 10.5206 106.853 10.402C106.372 10.2944 105.89 10.3015 105.411 10.4075C104.849 10.5315 104.402 10.8293 104.071 11.3014C103.813 11.668 103.649 12.0739 103.555 12.5094C103.42 13.1399 103.412 13.7747 103.508 14.4102C103.584 14.9112 103.745 15.3838 104.022 15.8132C104.346 16.3164 104.791 16.653 105.375 16.7978C105.852 16.9158 106.335 16.9267 106.817 16.8305C107.28 16.7382 107.675 16.5191 107.988 16.1591C108.208 15.9056 108.369 15.6171 108.49 15.3051C108.688 14.7893 108.758 14.2501 108.779 13.6223H108.778Z" fill="white"/>
<path d="M35.7288 6.60977V10.1797C35.7905 10.1824 35.8457 10.1874 35.9003 10.1874C37.823 10.1874 39.7461 10.1917 41.6688 10.1841C42.0081 10.1824 42.1764 10.3534 42.1665 10.6856C42.1534 11.1309 42.1638 11.5767 42.1627 12.022C42.1627 12.0739 42.16 12.1275 42.149 12.1777C42.1119 12.346 41.9802 12.4597 41.8087 12.4733C41.765 12.4766 41.7212 12.4744 41.6775 12.4744C39.7549 12.4744 37.8317 12.4744 35.9091 12.4744C35.8533 12.4744 35.797 12.4744 35.7277 12.4744C35.7255 12.5433 35.7217 12.5984 35.7217 12.6536C35.7217 14.5539 35.7217 16.4541 35.7217 18.3538C35.7217 18.4019 35.7233 18.45 35.7206 18.4981C35.7096 18.6958 35.5654 18.8417 35.3676 18.8505C35.2627 18.8548 35.1578 18.8521 35.0529 18.8521C34.5677 18.8521 34.0826 18.8434 33.5979 18.8554C33.316 18.8625 33.1565 18.6691 33.1592 18.4188C33.1652 17.8686 33.1609 17.3179 33.1609 16.7677C33.1609 12.7929 33.1609 8.81762 33.1614 4.84284C33.1614 4.77345 33.1614 4.70243 33.1756 4.63468C33.2122 4.4593 33.3493 4.34729 33.528 4.33855C33.5673 4.33691 33.6067 4.338 33.646 4.338C36.6483 4.338 39.6505 4.338 42.6528 4.338C42.679 4.338 42.7052 4.338 42.7315 4.338C42.9719 4.34128 43.1238 4.48825 43.1309 4.72974C43.1352 4.86524 43.132 5.00074 43.132 5.13569C43.132 5.48536 43.1314 5.83449 43.132 6.18416C43.132 6.30163 43.1079 6.40981 43.0232 6.49668C42.9566 6.56497 42.8763 6.6054 42.7795 6.60814C42.7358 6.60923 42.6921 6.60868 42.6484 6.60868C40.4023 6.60868 38.1562 6.60868 35.9096 6.60868C35.8539 6.60868 35.7981 6.60868 35.7293 6.60868L35.7288 6.60977Z" fill="white"/>
<path d="M117.077 15.4089C117.093 15.3663 117.109 15.3231 117.125 15.28C117.883 13.188 118.642 11.0954 119.4 9.00337C119.442 8.88864 119.483 8.77336 119.526 8.65917C119.59 8.48761 119.718 8.40238 119.897 8.40183C120.47 8.39964 121.042 8.39801 121.615 8.40183C121.916 8.40402 122.075 8.65425 121.966 8.95475C121.859 9.25033 121.742 9.54209 121.63 9.83548C120.446 12.9241 119.261 16.0121 118.078 19.1012C117.747 19.9645 117.28 20.7403 116.63 21.4014C115.886 22.1576 114.997 22.6624 113.97 22.9269C113.754 22.9826 113.609 22.9208 113.494 22.728C113.271 22.3575 113.05 21.986 112.83 21.6139C112.672 21.3468 112.764 21.1069 113.061 21.0053C113.416 20.8835 113.763 20.7387 114.092 20.5567C114.536 20.3109 114.932 20.0076 115.248 19.6061C115.516 19.2668 115.676 18.8778 115.791 18.4675C115.804 18.4232 115.787 18.3647 115.769 18.3194C115.533 17.7413 115.294 17.1649 115.057 16.5874C114.015 14.0572 112.973 11.527 111.931 8.99682C111.919 8.96841 111.908 8.94 111.898 8.91159C111.813 8.66408 111.97 8.42368 112.23 8.40238C112.273 8.39855 112.317 8.40074 112.361 8.40074C112.907 8.40074 113.453 8.40074 113.999 8.40074C114.256 8.40074 114.361 8.47286 114.454 8.71216C115.296 10.8894 116.138 13.0672 116.98 15.245C117.001 15.2996 117.024 15.3537 117.046 15.4084C117.056 15.4084 117.066 15.4084 117.076 15.4084L117.077 15.4089Z" fill="white"/>
</svg>
