<svg width="97" height="25" viewBox="0 0 97 25" fill="none" xmlns="http://www.w3.org/2000/svg">
<path d="M59.2706 10.0113V8.62633C59.3308 8.62095 59.3997 8.61019 59.4686 8.61019C60.2531 8.61019 61.0376 8.61019 61.8221 8.61126C62.018 8.61126 62.019 8.61664 62.0072 8.81896C61.9997 8.95778 62.0018 9.0966 62.0018 9.23543C62.0018 12.6963 62.0018 16.1572 62.0018 19.6181C62.0018 19.7795 62.004 19.941 62.0061 20.1024C62.0061 20.168 61.9846 20.1992 61.9125 20.1992C61.0516 20.196 60.1907 20.1938 59.3308 20.1917C59.3179 20.1917 59.3061 20.1852 59.2824 20.1799V18.7959C59.2404 18.8228 59.2124 18.8336 59.1931 18.853C58.4365 19.6278 57.511 20.097 56.4607 20.309C55.8807 20.4263 55.2845 20.4209 54.6926 20.4005C54.175 20.3822 53.6649 20.3241 53.1785 20.1357C52.592 19.9076 52.0388 19.6203 51.5449 19.2221C50.7873 18.6108 50.2244 17.8521 49.8037 16.9805C49.5454 16.4445 49.4292 15.8742 49.3528 15.2898C49.2376 14.4171 49.3162 13.554 49.4927 12.6985C49.5895 12.226 49.7983 11.7945 50.0254 11.3694C50.4042 10.6592 50.9164 10.0565 51.5373 9.55504C52.2541 8.97608 53.0795 8.61449 53.991 8.47029C55.1758 8.28304 56.3359 8.36375 57.4648 8.80712C58.1158 9.06217 58.6679 9.45389 59.1576 9.94353C59.1877 9.97367 59.1941 10.0253 59.2124 10.0673C59.2329 10.0479 59.2523 10.0296 59.2727 10.0103L59.2706 10.0113ZM55.6106 10.8744C53.7295 10.8217 52.1012 12.5532 52.0862 14.3504C52.07 16.2325 53.6229 17.9512 55.6224 17.9415C57.6499 17.9318 59.1608 16.3531 59.1791 14.4182C59.1963 12.4617 57.5724 10.8432 55.6116 10.8733L55.6106 10.8744Z" fill="white"/>
<path d="M4.4043 21.6068C7.02149 18.9842 9.62577 16.3746 12.2354 13.7606C14.8505 16.3789 17.4612 18.9907 20.0795 21.6122C18.971 22.5614 17.7098 23.2673 16.3345 23.7484C13.5817 24.7104 10.8138 24.7094 8.06966 23.7171C6.73523 23.235 5.52026 22.5162 4.4043 21.6079V21.6068Z" fill="white"/>
<path d="M24.4754 12.2325C24.4797 13.342 24.3495 14.4322 24.0374 15.4976C23.8104 16.2713 23.522 17.0192 23.1615 17.7446C22.7611 18.5474 22.2553 19.2759 21.7151 19.9851C21.6484 20.0733 21.6064 20.026 21.5569 19.9754C21.2825 19.6924 21.0113 19.4061 20.7337 19.1274C20.3301 18.7206 19.9212 18.3181 19.5144 17.9146C17.9497 16.3617 16.385 14.8077 14.8192 13.2549C14.5103 12.9482 14.2025 12.6415 13.8904 12.338C13.8173 12.267 13.7936 12.2142 13.8786 12.1303C15.0548 10.9616 16.2278 9.78966 17.403 8.61881C17.9206 8.10334 18.4404 7.59001 18.9559 7.07239C19.481 6.54507 19.9987 6.01238 20.5249 5.48614C20.8671 5.14393 21.2158 4.80925 21.5612 4.47026C21.6064 4.42614 21.643 4.38524 21.7011 4.45735C22.2177 5.09658 22.6869 5.76917 23.0614 6.50095C23.2777 6.9228 23.4875 7.35111 23.6533 7.79448C24.0105 8.75225 24.2925 9.73478 24.4023 10.755C24.455 11.2446 24.4539 11.7396 24.4776 12.2314L24.4754 12.2325Z" fill="white"/>
<path d="M43.3802 20.2132C43.2091 20.2057 43.0714 20.1939 42.9336 20.1928C42.1082 20.1928 41.2839 20.1928 40.4585 20.1971C40.3616 20.1971 40.3003 20.1766 40.2583 20.0841C40.2206 19.9991 40.169 19.9184 40.1152 19.842C39.7816 19.3652 39.4437 18.8906 39.1122 18.4128C38.7087 17.8317 38.3094 17.2474 37.9091 16.6652C37.8897 16.6372 37.8671 16.6103 37.8327 16.5662C37.7907 16.621 37.7541 16.6641 37.724 16.7104C37.6282 16.861 37.54 17.0171 37.4388 17.1634C37.0912 17.6628 36.735 18.1578 36.3874 18.6571C36.0732 19.1091 35.7611 19.5632 35.4576 20.0217C35.3683 20.1562 35.2682 20.2003 35.1046 20.1992C34.0597 20.1896 33.0158 20.1939 31.9709 20.1928C31.9225 20.1928 31.8751 20.1928 31.8159 20.1928V4.31744C31.8794 4.31744 31.9364 4.31744 31.9935 4.31744C32.792 4.31744 33.5894 4.32282 34.3879 4.31744C34.5257 4.31744 34.5547 4.36372 34.5461 4.48855C34.5332 4.66289 34.5353 4.8383 34.5353 5.01264C34.5353 8.82866 34.5353 12.6436 34.5353 16.4596C34.5353 16.5403 34.5214 16.621 34.5246 16.7007C34.5257 16.7448 34.5483 16.7868 34.5612 16.8309C34.5978 16.8018 34.6451 16.7803 34.6688 16.7437C34.8076 16.535 34.9346 16.3187 35.0767 16.1131C35.4382 15.5901 35.8063 15.0714 36.1711 14.5505C36.5897 13.9522 37.0083 13.3549 37.4248 12.7555C37.8187 12.1895 38.2072 11.6202 38.601 11.0541C39.1488 10.2675 39.6976 9.48296 40.2518 8.7006C40.2852 8.65325 40.3659 8.61343 40.4251 8.61343C41.3527 8.61343 42.2815 8.61881 43.2091 8.62419C43.2532 8.62419 43.2963 8.62849 43.3695 8.63172C43.3382 8.68123 43.3221 8.71351 43.3006 8.74257C43.1973 8.88247 43.0886 9.01914 42.9896 9.16226C42.5742 9.75737 42.1609 10.3525 41.7488 10.9497C41.385 11.4771 41.0245 12.0065 40.6608 12.5328C40.2841 13.0773 39.9032 13.6197 39.5244 14.1631C39.4695 14.2417 39.3694 14.317 39.3683 14.3945C39.3673 14.4698 39.4663 14.5462 39.5211 14.6237C39.9258 15.1984 40.3326 15.772 40.734 16.3499C41.1321 16.9234 41.5217 17.5035 41.9188 18.0782C42.3751 18.7378 42.8346 19.3932 43.292 20.0518C43.321 20.0938 43.3425 20.1422 43.3813 20.2132H43.3802Z" fill="white"/>
<path d="M68.4834 20.196C68.1466 20.196 67.8334 20.1939 67.5203 20.1971C67.4267 20.1982 67.3718 20.168 67.3384 20.0776C67.1877 19.6569 67.0328 19.2382 66.8778 18.8196C66.4108 17.5627 65.9394 16.3068 65.4745 15.0488C65.1657 14.2148 64.8654 13.3765 64.5566 12.5424C64.4059 12.1367 64.238 11.7364 64.0863 11.3307C63.9195 10.883 63.7656 10.4289 63.5999 9.98014C63.4481 9.57013 63.2867 9.16227 63.1317 8.75333C63.1167 8.71459 63.1113 8.67154 63.0984 8.62096C63.3082 8.62096 63.4987 8.62096 63.6903 8.62096C64.4296 8.61773 65.17 8.61558 65.9093 8.60912C65.9986 8.60912 66.0373 8.64787 66.0664 8.72212C66.245 9.19024 66.4269 9.65729 66.6056 10.1254C66.7917 10.614 66.9779 11.1036 67.1576 11.5944C67.4385 12.3627 67.7108 13.1343 67.9938 13.9016C68.1714 14.3837 68.3661 14.8605 68.548 15.3415C68.7729 15.9355 68.9968 16.5296 69.2152 17.1258C69.2776 17.2969 69.3207 17.4744 69.3831 17.6843C69.4272 17.6197 69.4595 17.5853 69.4756 17.5444C69.791 16.7125 70.1063 15.8796 70.4173 15.0466C70.7444 14.1664 71.063 13.2828 71.3933 12.4047C71.7582 11.434 72.1348 10.4666 72.5039 9.49695C72.6008 9.2419 72.6923 8.9847 72.7805 8.7275C72.8117 8.63495 72.8644 8.6059 72.9591 8.6059C73.8782 8.61235 74.7972 8.61451 75.7162 8.61773C75.7539 8.61773 75.7926 8.62419 75.8378 8.62742C75.8335 8.66401 75.8346 8.68661 75.8271 8.70598C75.4999 9.55183 75.1706 10.3977 74.8445 11.2446C74.5389 12.0377 74.2322 12.8298 73.9341 13.6251C73.5467 14.6592 73.1679 15.6966 72.7826 16.7319C72.3543 17.8801 71.925 19.0284 71.4934 20.1745C71.2179 20.9063 70.9327 21.6348 70.6562 22.3666C70.427 22.9725 70.202 23.5805 69.9782 24.1896C69.8792 24.4597 69.8824 24.4608 69.5897 24.4608C68.7342 24.4608 67.8776 24.4608 67.022 24.4608C66.8897 24.4608 66.8757 24.4371 66.9187 24.3252C67.1221 23.7947 67.3223 23.2641 67.5246 22.7336C67.8334 21.9232 68.1444 21.1129 68.4533 20.3026C68.4641 20.2746 68.4705 20.2444 68.4867 20.1928L68.4834 20.196Z" fill="white"/>
<path d="M88.3943 10.0931C88.4449 10.0318 88.4826 9.99196 88.5149 9.94783C88.9012 9.40653 89.3962 9.00405 90.0118 8.74362C91.0826 8.29164 92.1738 8.3024 93.2779 8.5822C93.9925 8.76299 94.6468 9.074 95.1881 9.57764C95.6788 10.0339 96.1179 10.5397 96.3621 11.1779C96.5236 11.5986 96.6828 12.0226 96.8066 12.4563C97.0057 13.1537 96.9895 13.8747 96.9906 14.5914C96.9938 16.4069 96.9938 18.2234 96.996 20.0389C96.996 20.1357 96.9863 20.1971 96.8593 20.196C96.007 20.1906 95.1558 20.1938 94.3035 20.1928C94.2776 20.1928 94.2518 20.1885 94.2034 20.1842C94.2034 20.111 94.2034 20.041 94.2034 19.9711C94.2034 18.0878 94.2002 16.2046 94.2034 14.3213C94.2045 13.6982 94.1291 13.0923 93.915 12.5015C93.6287 11.7106 93.0831 11.1811 92.2922 10.9476C91.584 10.7388 90.8458 10.6968 90.1366 10.9573C89.5867 11.1596 89.1756 11.5438 88.8797 12.0582C88.5644 12.6048 88.4008 13.1913 88.3976 13.8123C88.3868 15.8796 88.3943 17.9458 88.3954 20.0131C88.3954 20.196 88.3986 20.1949 88.2135 20.1949C87.415 20.1949 86.6176 20.1917 85.8191 20.1992C85.6932 20.1992 85.6728 20.1573 85.6728 20.0453C85.676 17.6595 85.6771 15.2748 85.676 12.8889C85.676 11.5126 85.6728 10.1362 85.6685 8.75977C85.6685 8.66076 85.6954 8.62632 85.7976 8.6274C86.6176 8.6317 87.4387 8.6317 88.2587 8.62955C88.3696 8.62955 88.4105 8.64892 88.4019 8.78129C88.3825 9.07615 88.3933 9.37209 88.3933 9.66804C88.3933 9.79933 88.3933 9.93062 88.3933 10.0931H88.3943Z" fill="white"/>
<path d="M20.0804 2.84203C15.552 7.37692 11.0268 11.9064 6.47577 16.4628C6.47577 16.3972 6.46931 16.3724 6.47577 16.352C6.81583 15.448 7.15482 14.5441 7.49811 13.6412C7.83602 12.7555 8.17824 11.872 8.5183 10.9863C8.73891 10.4106 8.96275 9.83484 9.17906 9.25695C9.46746 8.48643 9.74511 7.7116 10.0378 6.94323C10.4145 5.9521 10.8051 4.96742 11.1818 3.97629C11.4917 3.16164 11.7898 2.3427 12.0933 1.52482C12.2665 1.05993 12.443 0.596106 12.612 0.130134C12.6486 0.0278998 12.7045 -0.00653691 12.8111 0.000996128C13.9238 0.0784788 15.0086 0.282947 16.0718 0.625162C17.0457 0.939398 17.9626 1.36448 18.817 1.923C19.24 2.19957 19.6403 2.5095 20.0503 2.80436C20.0643 2.81405 20.0729 2.83127 20.0804 2.84095V2.84203Z" fill="white"/>
<path d="M2.75882 19.9571C2.65982 19.8161 2.58018 19.6988 2.49732 19.5847C2.01305 18.9218 1.56753 18.2363 1.22854 17.4863C1.07358 17.144 0.890631 16.8115 0.76795 16.4585C0.474161 15.6084 0.235256 14.7442 0.113651 13.8478C0.0124935 13.1031 -0.0208671 12.3584 0.0124935 11.6094C0.0157219 11.5362 0.0458541 11.4458 0.0964331 11.3963C1.56 9.93169 3.02786 8.47135 4.49465 7.00994C5.15433 6.35242 5.81401 5.69381 6.47261 5.03414C6.9784 4.52727 7.47881 4.01395 7.98783 3.50923C8.34726 3.15303 8.71746 2.80758 9.08012 2.45461C9.19204 2.34484 9.29212 2.22431 9.40189 2.11239C9.4557 2.05751 9.52027 2.01231 9.5999 1.98218C9.54179 2.121 9.47937 2.25767 9.42556 2.39757C9.17697 3.04864 8.92946 3.70079 8.68302 4.35293C8.4495 4.96741 8.2149 5.58082 7.9846 6.19745C7.68328 7.00564 7.38949 7.81706 7.08709 8.62632C6.96979 8.94056 6.83205 9.24726 6.71367 9.56149C6.40589 10.3815 6.10672 11.2058 5.79894 12.0259C5.67519 12.3563 5.53206 12.6802 5.40507 13.0105C5.15003 13.6692 4.90036 14.331 4.64854 14.9907C4.4473 15.5169 4.24283 16.041 4.04697 16.5683C3.76718 17.3227 3.49491 18.0792 3.21619 18.8347C3.09351 19.1661 2.96652 19.4954 2.83846 19.8247C2.82339 19.8645 2.79541 19.899 2.7599 19.9582L2.75882 19.9571Z" fill="white"/>
<path d="M81.6363 11.1919V20.1852C81.5954 20.1895 81.5609 20.1949 81.5276 20.196C80.6936 20.196 79.8595 20.1938 79.0266 20.1992C78.9007 20.1992 78.9029 20.1357 78.9029 20.0486C78.9039 18.43 78.9039 16.8115 78.905 15.1941C78.905 14.0469 78.905 12.8986 78.905 11.7515C78.905 11.6212 78.9104 11.4921 78.9168 11.3619C78.9255 11.1908 78.9233 11.1843 78.7543 11.1832C78.0592 11.1822 77.365 11.1832 76.6698 11.1832C76.5052 11.1832 76.3416 11.1832 76.1694 11.1832C76.1737 11.1445 76.1716 11.1219 76.1791 11.1025C76.3847 10.5634 76.5891 10.0242 76.7968 9.48616C76.8915 9.23972 76.997 8.99759 77.0842 8.74792C77.124 8.63493 77.1875 8.61233 77.294 8.61341C77.7783 8.61771 78.2625 8.61663 78.7457 8.61341C78.9201 8.61341 78.9125 8.60803 78.9104 8.42831C78.905 7.76971 78.9061 7.11003 78.9039 6.45142C78.9039 6.30399 78.9007 6.15548 78.8985 6.00805C78.8985 5.94025 78.919 5.90259 78.9997 5.90259C79.8606 5.90689 80.7215 5.90797 81.5814 5.91012C81.5943 5.91012 81.6072 5.9155 81.6309 5.92196C81.6341 5.95855 81.6395 5.99729 81.6395 6.03603C81.6395 6.84745 81.6395 7.65886 81.632 8.47028C81.632 8.59081 81.6696 8.62309 81.7848 8.62309C82.5962 8.61986 83.4076 8.62417 84.219 8.62094C84.3363 8.62094 84.3826 8.64354 84.3815 8.7759C84.3751 9.5249 84.3751 10.2728 84.3815 11.0218C84.3815 11.1488 84.3535 11.1897 84.218 11.1886C83.4065 11.1811 82.5951 11.1832 81.7837 11.1832C81.7396 11.1832 81.6965 11.1886 81.6352 11.1929L81.6363 11.1919Z" fill="white"/>
<path d="M44.861 20.1938C44.861 20.1034 44.861 20.0292 44.861 19.9538C44.861 14.8561 44.861 9.75949 44.861 4.66177C44.861 4.65316 44.861 4.64348 44.861 4.63487C44.8603 4.42394 44.9687 4.31848 45.186 4.31848C45.935 4.31848 46.683 4.32063 47.432 4.31848C47.5267 4.31848 47.5772 4.33032 47.5772 4.44762C47.5729 7.35214 47.5719 10.2577 47.5708 13.1623C47.5708 15.4534 47.5708 17.7434 47.5751 20.0346C47.5751 20.1605 47.5471 20.1992 47.4126 20.1971C46.6195 20.1884 45.8253 20.1917 45.0321 20.1917C44.9794 20.1917 44.9267 20.1917 44.8589 20.1917L44.861 20.1938Z" fill="white"/>
</svg>
