<svg width="229" height="40" viewBox="0 0 229 40" fill="none" xmlns="http://www.w3.org/2000/svg">
<path d="M74.3035 12.2112L69.0654 26.9484C69.0414 27.0196 68.9941 27.0807 68.9312 27.1221C68.8682 27.1635 68.7931 27.1827 68.7179 27.1768H68.321C68.2455 27.1798 68.171 27.1594 68.1076 27.1185C68.0442 27.0776 67.9951 27.0182 67.967 26.9484L64.0401 16.6126L60.1196 26.9484C60.0935 27.0183 60.0458 27.078 59.9833 27.1191C59.9208 27.1602 59.8468 27.1804 59.772 27.1768H59.3687C59.2938 27.181 59.2195 27.161 59.1569 27.1199C59.0943 27.0787 59.0467 27.0186 59.0212 26.9484L53.7831 12.2164C53.7027 11.988 53.7896 11.8461 54.0126 11.8461H55.6337C55.71 11.8384 55.7867 11.8568 55.8511 11.8984C55.9155 11.9399 55.9637 12.002 55.9878 12.0745L59.7215 23.2322L63.5174 13.0138C63.5447 12.9435 63.5936 12.8835 63.6572 12.8425C63.7208 12.8014 63.7958 12.7815 63.8715 12.7854H64.2125C64.2874 12.7817 64.3615 12.8018 64.424 12.8429C64.4865 12.884 64.5342 12.9439 64.5601 13.0138L68.4689 23.2322L72.1157 12.0745C72.1398 12.002 72.188 11.9399 72.2524 11.8984C72.3167 11.8568 72.3934 11.8384 72.4697 11.8461H74.0662C74.2957 11.8461 74.3826 11.988 74.3022 12.2112" fill="white"/>
<path d="M97.1005 19.3886C97.0859 20.9064 96.6202 22.386 95.7621 23.641C94.9039 24.896 93.6917 25.8703 92.2781 26.4411C90.8646 27.0119 89.3128 27.1537 87.8184 26.8487C86.3239 26.5437 84.9536 25.8056 83.88 24.7271C82.8064 23.6487 82.0776 22.2783 81.7853 20.7886C81.493 19.2988 81.6503 17.7563 82.2374 16.3553C82.8246 14.9543 83.8152 13.7575 85.0847 12.9157C86.3541 12.0738 87.8455 11.6246 89.3711 11.6245C90.3964 11.6102 91.414 11.8018 92.3632 12.1878C93.3123 12.5739 94.1735 13.1464 94.8951 13.8713C95.6167 14.5961 96.1839 15.4583 96.5629 16.4063C96.9418 17.3543 97.1246 18.3687 97.1005 19.3886ZM94.9567 19.3886C94.9567 15.8156 92.6146 13.3549 89.3711 13.3549C86.1276 13.3549 83.7855 15.8156 83.7855 19.3886C83.7855 22.9616 86.1276 25.4223 89.3711 25.4223C92.6146 25.4223 94.9567 22.9616 94.9567 19.3886Z" fill="white"/>
<path d="M117.57 26.319C117.619 26.3758 117.65 26.4463 117.658 26.521C117.667 26.5957 117.652 26.6712 117.616 26.7374C117.581 26.8037 117.525 26.8576 117.458 26.8921C117.391 26.9266 117.315 26.94 117.24 26.9306H115.78C115.732 26.9292 115.686 26.916 115.645 26.8924C115.604 26.8687 115.569 26.8353 115.544 26.7951L111.879 21.293H107.94V26.6222C107.939 26.704 107.906 26.7822 107.848 26.8401C107.79 26.8979 107.711 26.9309 107.629 26.9319H106.203C106.121 26.9305 106.042 26.8974 105.984 26.8396C105.927 26.7818 105.894 26.7038 105.893 26.6222V12.156C105.894 12.0745 105.927 11.9967 105.985 11.9389C106.043 11.8812 106.121 11.848 106.203 11.8463H111.813C115.74 11.8463 117.679 13.8993 117.679 16.569C117.702 17.6299 117.344 18.6642 116.668 19.4852C115.993 20.3061 115.044 20.8595 113.994 21.0453L117.57 26.319ZM111.412 19.5627C114.5 19.5627 115.537 18.2891 115.537 16.5703C115.537 14.8516 114.5 13.578 111.412 13.578H107.939V19.5627H111.412Z" fill="white"/>
<path d="M141.695 11.6035H142.161C142.202 11.6009 142.244 11.6071 142.283 11.6217C142.322 11.6363 142.357 11.659 142.387 11.6883C142.416 11.7176 142.439 11.7528 142.454 11.7916C142.469 11.8304 142.475 11.8718 142.472 11.9132V26.6233C142.475 26.6646 142.469 26.7061 142.454 26.7449C142.439 26.7836 142.416 26.8188 142.387 26.8481C142.357 26.8774 142.322 26.9002 142.283 26.9148C142.244 26.9294 142.202 26.9356 142.161 26.933H140.734C140.693 26.9356 140.651 26.9294 140.612 26.9148C140.573 26.9002 140.538 26.8774 140.508 26.8481C140.479 26.8188 140.456 26.7836 140.441 26.7449C140.427 26.7061 140.42 26.6646 140.423 26.6233V16.1804L134.675 24.4581C134.657 24.499 134.626 24.5336 134.588 24.558C134.55 24.5823 134.506 24.5952 134.461 24.5952C134.415 24.5952 134.371 24.5823 134.333 24.558C134.295 24.5336 134.265 24.499 134.246 24.4581L128.5 16.1804V26.622C128.502 26.6633 128.496 26.7048 128.481 26.7436C128.467 26.7823 128.444 26.8175 128.414 26.8469C128.385 26.8762 128.35 26.8989 128.311 26.9135C128.272 26.9281 128.23 26.9343 128.188 26.9317H126.762C126.72 26.9343 126.679 26.9281 126.64 26.9135C126.601 26.8989 126.565 26.8762 126.536 26.8469C126.506 26.8175 126.483 26.7823 126.469 26.7436C126.454 26.7048 126.448 26.6633 126.451 26.622V11.9119C126.448 11.8706 126.454 11.8291 126.469 11.7903C126.483 11.7516 126.506 11.7163 126.536 11.687C126.565 11.6577 126.601 11.635 126.64 11.6204C126.679 11.6058 126.72 11.5996 126.762 11.6022H127.222C127.299 11.6025 127.375 11.6219 127.443 11.6586C127.511 11.6953 127.569 11.7482 127.611 11.8125L134.459 21.3264L141.311 11.8125C141.352 11.7485 141.407 11.6956 141.474 11.6588C141.54 11.6221 141.614 11.6026 141.69 11.6022" fill="white"/>
<path d="M165.529 12.156V26.6209C165.528 26.7026 165.495 26.7806 165.436 26.8384C165.378 26.8962 165.3 26.9293 165.218 26.9306H163.791C163.709 26.9293 163.631 26.8962 163.573 26.8384C163.515 26.7806 163.481 26.7026 163.48 26.6209V20.031H154.043V26.6209C154.041 26.7026 154.008 26.7806 153.95 26.8384C153.892 26.8962 153.814 26.9293 153.731 26.9306H152.305C152.223 26.9293 152.144 26.8962 152.086 26.8384C152.028 26.7806 151.995 26.7026 151.994 26.6209V12.156C151.995 12.0743 152.028 11.9963 152.086 11.9385C152.144 11.8807 152.223 11.8476 152.305 11.8463H153.731C153.814 11.8476 153.892 11.8807 153.95 11.9385C154.008 11.9963 154.041 12.0743 154.043 12.156V18.3007H163.48V12.156C163.481 12.0743 163.515 11.9963 163.573 11.9385C163.631 11.8807 163.709 11.8476 163.791 11.8463H165.218C165.3 11.8476 165.378 11.8807 165.436 11.9385C165.495 11.9963 165.528 12.0743 165.529 12.156Z" fill="white"/>
<path d="M189.779 19.3886C189.765 20.9064 189.299 22.386 188.441 23.641C187.583 24.896 186.37 25.8703 184.957 26.4411C183.543 27.0119 181.992 27.1537 180.497 26.8487C179.003 26.5437 177.632 25.8056 176.559 24.7271C175.485 23.6487 174.756 22.2783 174.464 20.7886C174.172 19.2988 174.329 17.7563 174.916 16.3553C175.503 14.9543 176.494 13.7575 177.763 12.9157C179.033 12.0738 180.524 11.6246 182.05 11.6245C183.075 11.6102 184.093 11.8018 185.042 12.1878C185.991 12.5739 186.852 13.1464 187.574 13.8713C188.295 14.5961 188.863 15.4583 189.242 16.4063C189.621 17.3543 189.803 18.3687 189.779 19.3886ZM187.635 19.3886C187.635 15.8156 185.293 13.3549 182.05 13.3549C178.806 13.3549 176.464 15.8156 176.464 19.3886C176.464 22.9616 178.806 25.4223 182.05 25.4223C185.293 25.4223 187.635 22.9616 187.635 19.3886Z" fill="white"/>
<path d="M209.304 25.5086V26.6209C209.306 26.6623 209.3 26.7037 209.286 26.7425C209.271 26.7813 209.248 26.8165 209.219 26.8458C209.189 26.8751 209.154 26.8978 209.115 26.9124C209.076 26.9271 209.034 26.9332 208.993 26.9306H198.885C198.803 26.9293 198.724 26.8962 198.666 26.8384C198.608 26.7806 198.575 26.7026 198.573 26.6209V12.156C198.575 12.0743 198.608 11.9963 198.666 11.9385C198.724 11.8807 198.803 11.8476 198.885 11.8463H200.311C200.393 11.848 200.471 11.8812 200.529 11.9389C200.587 11.9967 200.62 12.0745 200.621 12.156V25.1989H208.996C209.038 25.1963 209.08 25.2025 209.119 25.2171C209.158 25.2317 209.193 25.2544 209.222 25.2837C209.252 25.3131 209.275 25.3483 209.289 25.387C209.304 25.4258 209.31 25.4673 209.308 25.5086" fill="white"/>
<path d="M228.998 25.5073V26.6196C229.001 26.6609 228.994 26.7024 228.98 26.7411C228.965 26.7799 228.942 26.8151 228.913 26.8444C228.883 26.8737 228.848 26.8965 228.809 26.9111C228.77 26.9257 228.728 26.9319 228.687 26.9292H217.771C217.689 26.9279 217.61 26.8949 217.552 26.8371C217.494 26.7793 217.461 26.7013 217.46 26.6196V12.1546C217.461 12.0729 217.494 11.9949 217.552 11.9371C217.61 11.8793 217.689 11.8463 217.771 11.845H228.439C228.481 11.8423 228.522 11.8485 228.561 11.8631C228.6 11.8777 228.636 11.9005 228.665 11.9298C228.695 11.9591 228.717 11.9943 228.732 12.0331C228.747 12.0718 228.753 12.1133 228.75 12.1546V13.2669C228.753 13.3083 228.747 13.3497 228.732 13.3885C228.717 13.4273 228.695 13.4625 228.665 13.4918C228.636 13.5211 228.6 13.5438 228.561 13.5585C228.522 13.5731 228.481 13.5793 228.439 13.5766H219.505V18.2993H227.446C227.487 18.2967 227.528 18.3028 227.566 18.317C227.604 18.3313 227.639 18.3534 227.669 18.3821C227.698 18.4107 227.721 18.4451 227.736 18.4831C227.751 18.5211 227.758 18.5618 227.756 18.6026V19.7213C227.758 19.7624 227.752 19.8036 227.737 19.8422C227.722 19.8807 227.7 19.9157 227.67 19.9448C227.641 19.9739 227.606 19.9966 227.567 20.0112C227.528 20.0258 227.487 20.0321 227.446 20.0297H219.505V25.1976H228.688C228.73 25.1949 228.771 25.2011 228.81 25.2157C228.849 25.2304 228.885 25.2531 228.914 25.2824C228.943 25.3117 228.966 25.3469 228.981 25.3857C228.996 25.4245 229.002 25.4659 228.999 25.5073" fill="white"/>
<path d="M19.9641 40C14.6734 39.9966 9.60016 37.8891 5.85741 34.1399C2.11467 30.3906 0.00813319 25.3059 0 20.0013C0.00813203 14.6965 2.11455 9.61146 5.85723 5.86182C9.5999 2.11217 14.6732 0.00407124 19.9641 0C25.255 0.00407124 30.3282 2.11217 34.0709 5.86182C37.8135 9.61146 39.92 14.6965 39.9281 20.0013C39.92 25.3059 37.8135 30.3906 34.0708 34.1399C30.328 37.8891 25.2547 39.9966 19.9641 40ZM19.9641 1.53974C15.0803 1.54314 10.3972 3.48881 6.94239 6.94984C3.48757 10.4109 1.54315 15.1046 1.5357 20.0013C1.54045 24.8986 3.4841 29.5936 6.93958 33.0549C10.3951 36.5161 15.0797 38.4603 19.9641 38.4603C24.8485 38.4603 29.5331 36.5161 32.9886 33.0549C36.4441 29.5936 38.3877 24.8986 38.3924 20.0013C38.3849 15.1046 36.4405 10.4109 32.9857 6.94984C29.5309 3.48881 24.8479 1.54314 19.9641 1.53974Z" fill="white"/>
<path d="M22.4874 36.8364C18.1041 36.833 13.9012 35.0865 10.8005 31.9801C7.69989 28.8737 5.95477 24.661 5.948 20.2662C5.95477 15.8713 7.69989 11.6586 10.8005 8.5522C13.9012 5.44579 18.1041 3.69932 22.4874 3.69592C26.8707 3.69932 31.0737 5.44579 34.1743 8.5522C37.275 11.6586 39.0201 15.8713 39.0269 20.2662C39.0201 24.661 37.275 28.8737 34.1743 31.9801C31.0737 35.0865 26.8707 36.833 22.4874 36.8364ZM22.4874 4.8918C18.4207 4.89519 14.5214 6.51576 11.6448 9.39798C8.76825 12.2802 7.14936 16.1887 7.14326 20.2662C7.15004 24.3431 8.76926 28.251 11.6458 31.1327C14.5222 34.0143 18.4212 35.6345 22.4874 35.6379C26.5537 35.6345 30.4526 34.0143 33.3291 31.1327C36.2056 28.251 37.8248 24.3431 37.8316 20.2662C37.8248 16.1892 36.2056 12.2813 33.3291 9.39961C30.4526 6.51794 26.5537 4.89776 22.4874 4.89437V4.8918Z" fill="white"/>
<path d="M25.0111 33.6739C21.5354 33.6712 18.2027 32.2864 15.7441 29.8232C13.2855 27.36 11.9017 24.0196 11.8962 20.5348C11.9017 17.0499 13.2855 13.7096 15.7441 11.2464C18.2027 8.78318 21.5354 7.39834 25.0111 7.39563C28.487 7.39767 31.82 8.78228 34.2788 11.2456C36.7376 13.709 38.1212 17.0497 38.1259 20.5348C38.1205 24.0196 36.7367 27.36 34.278 29.8232C31.8194 32.2864 28.4868 33.6712 25.0111 33.6739ZM25.0111 8.25018C21.7613 8.25221 18.6449 9.5468 16.346 11.8499C14.0471 14.1529 12.7533 17.2764 12.7485 20.5348C12.7539 23.7927 14.0481 26.9155 16.3469 29.218C18.6458 31.5205 21.7617 32.8148 25.0111 32.8168C28.2605 32.8148 31.3764 31.5205 33.6753 29.218C35.9741 26.9155 37.2683 23.7927 37.2737 20.5348C37.2689 17.2764 35.9751 14.1529 33.6762 11.8499C31.3772 9.5468 28.2609 8.25221 25.0111 8.25018Z" fill="white"/>
<path d="M27.5349 30.5103C24.9669 30.5082 22.5045 29.485 20.6879 27.6651C18.8712 25.8451 17.8488 23.377 17.8447 20.8022C17.8481 18.2269 18.8703 15.7582 20.687 13.9377C22.5037 12.1171 24.9664 11.0936 27.5349 11.0916C30.1035 11.0936 32.5663 12.1171 34.383 13.9377C36.1997 15.7582 37.2218 18.2269 37.2252 20.8022C37.2211 23.377 36.1987 25.8451 34.3821 27.6651C32.5655 29.485 30.103 30.5082 27.5349 30.5103ZM27.5349 11.6048C25.1022 11.6068 22.7697 12.5763 21.049 14.3006C19.3283 16.0248 18.36 18.3631 18.3566 20.8022C18.3607 23.2409 19.3292 25.5784 21.0498 27.3021C22.7705 29.0258 25.1027 29.995 27.5349 29.997C29.9672 29.995 32.2994 29.0258 34.0201 27.3021C35.7407 25.5784 36.7092 23.2409 36.7133 20.8022C36.7099 18.3631 35.7417 16.0248 34.0211 14.3006C32.3004 12.5763 29.9677 11.6068 27.5349 11.6048Z" fill="white"/>
</svg>
